<?xml version="1.0" encoding="utf-8"?><svg viewBox="0 0 384 512" xmlns="http://www.w3.org/2000/svg" xmlns:xlink="http://www.w3.org/1999/xlink"><style>:root>svg{display:none}:root>svg:target{display:block}</style><svg fill="none" viewBox="0 0 24 14" id="burger" xmlns="http://www.w3.org/2000/svg"><path d="M.571 0h22.857v2.286H.571V0Zm5.715 5.714h17.142V8H6.286V5.714Zm7.142 5.715h10v2.285h-10V11.43Z" fill="#737373"/></svg><svg fill="none" viewBox="0 0 25 24" id="facebook" xmlns="http://www.w3.org/2000/svg"><g clip-path="url(#ba)"><path fill-rule="evenodd" clip-rule="evenodd" d="M24 11.57C24 5.18 18.852 0 12.501 0 6.148.001 1 5.18 1 11.572 1 17.346 5.206 22.132 10.702 23v-8.085H7.784v-3.343h2.92V9.02c0-2.9 1.718-4.5 4.344-4.5 1.26 0 2.575.225 2.575.225v2.846h-1.45c-1.428 0-1.873.893-1.873 1.808v2.17h3.188l-.51 3.344h-2.68v8.085C19.794 22.13 24 17.344 24 11.57Z" fill="#23A6F0"/></g><defs><clipPath id="ba"><path fill="#fff" transform="translate(.5)" d="M0 0h24v24H0z"/></clipPath></defs></svg><svg fill="none" viewBox="0 0 25 24" id="instagram" xmlns="http://www.w3.org/2000/svg"><g clip-path="url(#ca)"><path d="M13 1c-2.985 0-3.36.014-4.533.066-1.173.055-1.972.24-2.672.511-.734.277-1.4.71-1.948 1.27a5.4 5.4 0 0 0-1.27 1.948c-.272.699-.457 1.499-.511 2.668C2.014 8.638 2 9.013 2 12c0 2.987.014 3.36.066 4.534.055 1.171.24 1.97.512 2.67a5.403 5.403 0 0 0 1.269 1.948c.61.612 1.223.989 1.947 1.27.7.272 1.498.457 2.67.511C9.638 22.986 10.012 23 13 23c2.988 0 3.36-.014 4.535-.066 1.17-.055 1.971-.24 2.671-.512a5.386 5.386 0 0 0 1.947-1.269 5.404 5.404 0 0 0 1.27-1.948c.27-.7.456-1.499.511-2.67.052-1.173.066-1.547.066-4.535 0-2.988-.014-3.362-.066-4.536-.055-1.17-.24-1.97-.512-2.669a5.4 5.4 0 0 0-1.269-1.948 5.379 5.379 0 0 0-1.948-1.27c-.701-.272-1.502-.457-2.672-.511C16.36 1.014 15.986 1 12.997 1h.004H13Zm-.986 1.983h.987c2.937 0 3.285.01 4.444.063 1.073.048 1.656.228 2.044.378.512.2.88.439 1.265.824a3.4 3.4 0 0 1 .822 1.265c.151.386.33.97.378 2.042.054 1.159.065 1.507.065 4.442 0 2.936-.011 3.285-.065 4.444-.048 1.073-.228 1.654-.378 2.042-.177.478-.458.91-.824 1.264-.385.385-.75.623-1.265.822-.385.151-.968.33-2.042.38-1.159.052-1.507.064-4.444.064-2.937 0-3.286-.012-4.445-.065-1.072-.049-1.654-.228-2.042-.379a3.407 3.407 0 0 1-1.265-.822 3.41 3.41 0 0 1-.825-1.265c-.15-.387-.33-.97-.378-2.042-.052-1.16-.063-1.507-.063-4.446 0-2.937.01-3.283.063-4.442.05-1.073.228-1.656.38-2.043.199-.513.438-.88.823-1.265.385-.385.75-.623 1.265-.823.388-.15.97-.33 2.042-.38 1.015-.046 1.408-.06 3.458-.061v.003Zm6.859 1.826a1.32 1.32 0 1 0 0 2.64 1.32 1.32 0 0 0 0-2.64ZM13 6.35a5.65 5.65 0 1 0-.176 11.3 5.65 5.65 0 0 0 .176-11.3Zm0 1.982a3.667 3.667 0 1 1 0 7.334 3.667 3.667 0 0 1 0-7.334Z" fill="#23A6F0"/></g><defs><clipPath id="ca"><path fill="#fff" transform="translate(.5)" d="M0 0h24v24H0z"/></clipPath></defs></svg><svg fill="none" viewBox="0 0 49 40" id="job-security" xmlns="http://www.w3.org/2000/svg"><g clip-path="url(#da)"><path fill-rule="evenodd" clip-rule="evenodd" d="M46.417 38.667s3.083 0 3.083-3.111S46.417 23.11 34.084 23.11c-12.334 0-15.417 9.333-15.417 12.445 0 3.11 3.083 3.11 3.083 3.11h24.667Zm-24.599-3.111H46.35a.894.894 0 0 0 .043-.007l.025-.006c-.006-.821-.515-3.204-2.343-5.351-1.702-2.013-4.693-3.97-9.99-3.97-5.294 0-8.285 1.96-9.99 3.97-1.829 2.147-2.34 4.533-2.344 5.351l.068.013Zm12.266-18.667a6.138 6.138 0 0 0 4.36-1.822 6.25 6.25 0 0 0 1.806-4.4 6.25 6.25 0 0 0-1.806-4.4 6.139 6.139 0 0 0-4.36-1.823 6.139 6.139 0 0 0-4.36 1.823 6.25 6.25 0 0 0-1.807 4.4c0 1.65.65 3.233 1.806 4.4a6.139 6.139 0 0 0 4.36 1.822Zm9.25-6.222c0 1.225-.24 2.439-.705 3.571a9.34 9.34 0 0 1-2.005 3.028 9.247 9.247 0 0 1-3 2.024 9.18 9.18 0 0 1-7.08 0 9.248 9.248 0 0 1-3.001-2.024 9.34 9.34 0 0 1-2.005-3.028 9.405 9.405 0 0 1-.704-3.571c0-2.476.974-4.85 2.709-6.6a9.208 9.208 0 0 1 6.54-2.734c2.454 0 4.807.984 6.541 2.734a9.376 9.376 0 0 1 2.71 6.6ZM21.553 23.982a17.99 17.99 0 0 0-3.793-.768c-.723-.07-1.45-.104-2.176-.103C3.25 23.111.167 32.444.167 35.556c0 2.075 1.027 3.11 3.083 3.11h13a7.014 7.014 0 0 1-.666-3.11c0-3.143 1.162-6.353 3.36-9.035.75-.915 1.622-1.77 2.609-2.539Zm-6.216 2.24c-5.143.063-8.063 1.991-9.743 3.97-1.841 2.16-2.344 4.552-2.344 5.364h9.25c0-3.252.996-6.49 2.837-9.334Zm-10.545-14c0-2.475.975-4.85 2.71-6.6a9.208 9.208 0 0 1 6.54-2.733c2.453 0 4.806.983 6.54 2.734a9.376 9.376 0 0 1 2.71 6.6c0 2.475-.975 4.849-2.71 6.599a9.208 9.208 0 0 1-6.54 2.734 9.208 9.208 0 0 1-6.54-2.734 9.376 9.376 0 0 1-2.71-6.6ZM14.042 6a6.139 6.139 0 0 0-4.36 1.822 6.25 6.25 0 0 0-1.807 4.4c0 1.65.65 3.233 1.806 4.4a6.139 6.139 0 0 0 4.361 1.823 6.139 6.139 0 0 0 4.36-1.823 6.25 6.25 0 0 0 1.807-4.4 6.25 6.25 0 0 0-1.806-4.4A6.139 6.139 0 0 0 14.041 6Z" fill="#E77C40"/></g><defs><clipPath id="da"><path fill="#fff" transform="translate(.5)" d="M0 0h48v39.529H0z"/></clipPath></defs></svg><svg fill="none" viewBox="0 0 12 10" id="right-arrow-white" xmlns="http://www.w3.org/2000/svg"><g clip-path="url(#ea)"><path fill-rule="evenodd" clip-rule="evenodd" d="M0 5c0-.19.079-.371.22-.505a.77.77 0 0 1 .53-.21h8.688l-3.22-3.064a.698.698 0 0 1-.22-.506c0-.19.08-.371.22-.506A.77.77 0 0 1 6.75 0c.2 0 .39.075.531.21l4.5 4.284A.713.713 0 0 1 12 5a.685.685 0 0 1-.22.506L7.28 9.79a.77.77 0 0 1-.53.209.77.77 0 0 1-.532-.21.698.698 0 0 1-.22-.505c0-.19.08-.372.22-.506l3.22-3.065H.75a.77.77 0 0 1-.53-.209A.697.697 0 0 1 0 5Z" fill="#fff"/></g><defs><clipPath id="ea"><path fill="#fff" d="M0 0h12v10H0z"/></clipPath></defs></svg><svg fill="none" viewBox="0 0 24 24" id="search" xmlns="http://www.w3.org/2000/svg"><g clip-path="url(#fa)"><path fill-rule="evenodd" clip-rule="evenodd" d="m17.19 15.478 6.456 6.456a1.21 1.21 0 0 1-1.713 1.71l-6.455-6.455a9.6 9.6 0 1 1 1.71-1.711h.002ZM9.6 16.799a7.2 7.2 0 1 0 0-14.4 7.2 7.2 0 0 0 0 14.4Z" fill="#737373"/></g><defs><clipPath id="fa"><path fill="#fff" d="M0 0h24v24H0z"/></clipPath></defs></svg><svg fill="none" viewBox="0 0 24 23" id="shop" xmlns="http://www.w3.org/2000/svg"><g clip-path="url(#ga)" fill="#737373"><path d="M8 22.4a1.6 1.6 0 1 0 0-3.2 1.6 1.6 0 0 0 0 3.2ZM19.2 22.4a1.6 1.6 0 1 0 0-3.2 1.6 1.6 0 0 0 0 3.2ZM22.4 4H4.656L4 .64A.8.8 0 0 0 3.2 0H0v1.6h2.544L5.6 16.96a.8.8 0 0 0 .8.64h14.4V16H7.056L6.4 12.8h14.4a.8.8 0 0 0 .8-.624l1.6-7.2A.8.8 0 0 0 22.4 4Zm-2.24 7.2H6.096l-1.12-5.6H21.4l-1.24 5.6Z"/></g><defs><clipPath id="ga"><path fill="#fff" d="M0 0h24v22.4H0z"/></clipPath></defs></svg><svg fill="none" viewBox="0 0 25 20" id="twitter" xmlns="http://www.w3.org/2000/svg"><g clip-path="url(#ha)"><path d="M8.91 19c8.303 0 12.845-6.927 12.845-12.923 0-.194 0-.39-.009-.585A9.228 9.228 0 0 0 24 3.136a9.105 9.105 0 0 1-2.597.717 4.565 4.565 0 0 0 1.99-2.516c-.888.53-1.858.9-2.87 1.098a4.491 4.491 0 0 0-5.425-.897 4.537 4.537 0 0 0-1.985 2.134 4.579 4.579 0 0 0-.285 2.909c-1.795-.091-3.55-.56-5.153-1.378a12.839 12.839 0 0 1-4.151-3.37 4.581 4.581 0 0 0-.492 3.312A4.554 4.554 0 0 0 4.923 7.9a4.545 4.545 0 0 1-2.043-.565v.063a4.572 4.572 0 0 0 1.021 2.876A4.516 4.516 0 0 0 6.5 11.853a4.374 4.374 0 0 1-1.19.16c-.283 0-.565-.026-.844-.08.289.903.85 1.692 1.607 2.258.756.565 1.669.878 2.61.895a9.019 9.019 0 0 1-5.61 1.948A8.62 8.62 0 0 1 2 16.972 12.783 12.783 0 0 0 8.91 19Z" fill="#23A6F0"/></g><defs><clipPath id="ha"><path fill="#fff" transform="translate(.5 .118)" d="M0 0h24v19.765H0z"/></clipPath></defs></svg><svg viewBox="0 0 384 512" id="xmark-solid" xmlns="http://www.w3.org/2000/svg"><!--! Font Awesome Pro 6.4.0 by @fontawesome - https://fontawesome.com License - https://fontawesome.com/license (Commercial License) Copyright 2023 Fonticons, Inc.--><path d="M342.6 150.6c12.5-12.5 12.5-32.8 0-45.3s-32.8-12.5-45.3 0L192 210.7 86.6 105.4c-12.5-12.5-32.8-12.5-45.3 0s-12.5 32.8 0 45.3L146.7 256 41.4 361.4c-12.5 12.5-12.5 32.8 0 45.3s32.8 12.5 45.3 0L192 301.3l105.4 105.3c12.5 12.5 32.8 12.5 45.3 0s12.5-32.8 0-45.3L237.3 256l105.3-105.4z"/></svg></svg>